<svg viewBox="0 0 52 52" xmlns="http://www.w3.org/2000/svg" xmlns:xlink="http://www.w3.org/1999/xlink" width="52.000000" height="52.000000" fill="none" customFrame="#000000">
	<defs>
		<linearGradient id="paint_linear_0" x1="26" x2="26" y1="10" y2="42" gradientUnits="userSpaceOnUse">
			<stop stop-color="rgb(147.115,235.385,220.673)" offset="0" stop-opacity="1" />
			<stop stop-color="rgb(164,204,210)" offset="1" stop-opacity="1" />
		</linearGradient>
	</defs>
	<rect id="Frame 28" width="52.000000" height="52.000000" x="0.000000" y="0.000000" />
	<path id="Ellipse 2" d="M26 0C40.3594 0 52 11.6406 52 26C52 40.3594 40.3594 52 26 52C11.6406 52 0 40.3594 0 26C0 11.6406 11.6406 0 26 0ZM26 1.66142C39.4418 1.66142 50.3386 12.5582 50.3386 26C50.3386 39.4418 39.4418 50.3386 26 50.3386C12.5582 50.3386 1.66142 39.4418 1.66142 26C1.66142 12.5582 12.5582 1.66142 26 1.66142Z" fill="rgb(140,165,115)" fill-rule="evenodd" />
	<path id="Polygon 1" d="M39.8564 34L12.1436 34L26 10L39.8564 34Z" fill="url(#paint_linear_0)" fill-rule="evenodd" />
</svg>
